<?xml version="1.0" standalone="no"?>
<!DOCTYPE svg PUBLIC "-//W3C//DTD SVG 20010904//EN"
 "http://www.w3.org/TR/2001/REC-SVG-20010904/DTD/svg10.dtd">
<svg version="1.0" xmlns="http://www.w3.org/2000/svg"
 width="152.000000pt" height="100.000000pt" viewBox="0 0 152.000000 100.000000"
 preserveAspectRatio="xMidYMid meet">
<metadata>
Created by potrace 1.15, written by Peter Selinger 2001-2017
</metadata>
<g transform="translate(0.000000,100.000000) scale(0.100000,-0.100000)"
fill="#000000" stroke="none">
<path d="M300 988 c0 -23 77 -151 127 -212 63 -78 148 -147 170 -139 12 5 14
3 8 -8 -4 -8 -5 -11 0 -7 4 4 14 1 22 -7 8 -8 20 -15 26 -14 7 0 -1 10 -17 22
-124 93 -189 189 -226 335 l-11 42 -49 0 c-33 0 -50 -4 -50 -12z"/>
<path d="M468 963 c57 -126 120 -215 192 -272 39 -31 46 -41 37 -52 -7 -8 2
-1 19 14 l31 28 27 -31 c35 -42 33 -68 -11 -125 -20 -27 -31 -45 -24 -41 25
16 71 90 71 115 0 14 -7 35 -15 45 -8 11 -15 29 -15 41 0 12 -12 37 -26 56
-38 50 -82 145 -94 206 -11 50 -13 53 -41 53 -27 0 -30 -3 -23 -22 18 -62 76
-169 117 -219 l46 -56 -22 -21 -21 -22 -47 50 c-56 60 -102 143 -125 228 l-17
62 -38 0 -39 0 18 -37z"/>
<path d="M247 858 c-36 -77 -35 -85 29 -146 101 -95 246 -179 287 -166 13 4
17 2 13 -5 -6 -10 29 -17 58 -12 5 1 6 -8 2 -21 -3 -13 -6 -28 -6 -34 0 -17
-104 -6 -164 16 -72 27 -174 116 -217 190 -14 24 -29 -7 -29 -63 0 -43 3 -49
33 -67 110 -69 257 -116 334 -107 39 4 41 3 45 -24 3 -16 2 -29 -1 -29 -3 -1
-26 -5 -51 -10 -85 -16 -206 22 -283 90 -19 16 -38 30 -42 30 -15 0 3 -94 20
-106 9 -7 48 -20 86 -29 79 -20 237 -17 262 3 12 10 16 8 21 -10 11 -41 7 -46
-45 -63 -81 -27 -178 -15 -271 33 -18 9 -6 -50 13 -69 20 -20 30 -21 114 -17
71 4 105 11 150 32 32 14 59 25 60 24 1 -2 7 -13 14 -25 9 -18 7 -24 -15 -42
-40 -32 -90 -43 -170 -39 -70 3 -74 2 -68 -17 12 -38 26 -44 78 -34 59 11 143
49 172 77 l22 21 21 -23 21 -22 -33 -31 c-36 -36 -71 -51 -122 -55 -35 -2 -42
-12 -26 -37 14 -22 90 11 149 64 44 39 49 42 67 29 11 -8 45 -22 75 -31 56
-16 110 -59 110 -87 0 -9 5 -16 10 -16 6 0 10 7 10 15 0 32 45 130 74 162 29
32 34 34 74 27 41 -6 44 -9 40 -35 -5 -35 2 -36 30 -6 28 29 30 90 4 115 -99
94 -129 107 -235 100 -76 -5 -142 -35 -205 -95 -26 -24 -54 -42 -62 -41 -8 2
-25 31 -38 68 -18 51 -22 79 -18 131 l5 67 -47 12 c-119 30 -226 126 -290 260
-20 44 -40 80 -43 80 -4 0 -14 -15 -22 -32z m822 -487 c14 -4 27 -13 29 -21 5
-13 3 -13 -12 -1 -21 17 -34 6 -19 -17 7 -11 21 -16 43 -14 23 2 40 -4 57 -19
39 -37 30 -47 -31 -36 -46 9 -59 7 -78 -6 -13 -10 -45 -33 -72 -52 -27 -19
-59 -38 -72 -41 -65 -16 -144 30 -144 85 0 36 61 93 124 115 43 15 134 19 175
7z"/>
</g>
</svg>
